<?xml version="1.0" encoding="utf-8"?>
<!-- Generator: Adobe Illustrator 18.0.0, SVG Export Plug-In . SVG Version: 6.00 Build 0)  -->
<!DOCTYPE svg PUBLIC "-//W3C//DTD SVG 1.1//EN" "http://www.w3.org/Graphics/SVG/1.1/DTD/svg11.dtd">
<svg version="1.1" id="Layer_1" xmlns="http://www.w3.org/2000/svg" xmlns:xlink="http://www.w3.org/1999/xlink" x="0px" y="0px"
	 viewBox="0 0 179 40" enable-background="new 0 0 179 40" xml:space="preserve">
<g>
	<g id="XMLID_17_">
		<linearGradient id="XMLID_20_" gradientUnits="userSpaceOnUse" x1="39.0455" y1="7.0436" x2="84.9856" y2="7.0436">
			<stop  offset="0" style="stop-color:#00899C"/>
			<stop  offset="2.222196e-002" style="stop-color:#008FA7"/>
			<stop  offset="8.393367e-002" style="stop-color:#009DC2"/>
			<stop  offset="0.1471" style="stop-color:#00A7D5"/>
			<stop  offset="0.2119" style="stop-color:#00ADE0"/>
			<stop  offset="0.2809" style="stop-color:#00AFE4"/>
			<stop  offset="0.6685" style="stop-color:#00899C"/>
			<stop  offset="0.8876" style="stop-color:#262261"/>
			<stop  offset="1" style="stop-color:#262261"/>
		</linearGradient>
		<path id="XMLID_2_" fill="url(#XMLID_20_)" d="M53.7,12.7c0,0-8,1.5-14.6-9.9c0,0,13.5,2.8,22.7,0c0,0,19.5-5.7,23.2,5.7
			c0,0-6.7-8.3-23.2-3.6c0,0-11.5,3.4-19.5,0.2C42.3,5,46.5,11.4,53.7,12.7z"/>
		<linearGradient id="XMLID_21_" gradientUnits="userSpaceOnUse" x1="43.2662" y1="24.3627" x2="72.6483" y2="24.3627">
			<stop  offset="0" style="stop-color:#9FA757;stop-opacity:0.5"/>
			<stop  offset="4.635438e-002" style="stop-color:#98AB5B;stop-opacity:0.5165"/>
			<stop  offset="0.1598" style="stop-color:#8DB263;stop-opacity:0.5569"/>
			<stop  offset="0.2809" style="stop-color:#89B465;stop-opacity:0.6"/>
			<stop  offset="0.6685" style="stop-color:#307C39"/>
			<stop  offset="0.8876" style="stop-color:#006838"/>
			<stop  offset="1" style="stop-color:#006636"/>
		</linearGradient>
		<path id="XMLID_3_" fill="url(#XMLID_21_)" d="M43.3,10.1c0,0,6.8,5.7,17.2,3.7c0,0-6,21.1,12.2,24.8c0,0-19,0.5-14.8-22.4
			C57.9,16.2,48.8,17.5,43.3,10.1z"/>
		<linearGradient id="XMLID_22_" gradientUnits="userSpaceOnUse" x1="61.1213" y1="25.3363" x2="72.973" y2="25.3363">
			<stop  offset="0" style="stop-color:#006838;stop-opacity:0.4"/>
			<stop  offset="9.343886e-003" style="stop-color:#006838;stop-opacity:0.4166"/>
			<stop  offset="0.2809" style="stop-color:#006838;stop-opacity:0.9"/>
			<stop  offset="0.6685" style="stop-color:#006838"/>
			<stop  offset="0.8876" style="stop-color:#006838"/>
			<stop  offset="1" style="stop-color:#006838"/>
		</linearGradient>
		<path id="XMLID_4_" fill="url(#XMLID_22_)" d="M61.8,14c0,0-4.7,22.1,11.2,22.9c0,0-12.3-0.3-9.6-23.1L61.8,14z"/>
	</g>
	<g id="XMLID_1_">
		<g id="XMLID_5_">
			<path id="XMLID_6_" fill="#00ADEE" d="M97.9,24.6c0,0,0.2-5.8-5.7-7.8c0,0-5.3-1.9-10.3,2.2c0,0,4.2-6.6,11.6-3.6
				C93.6,15.4,99.8,17.9,97.9,24.6z"/>
			<path id="XMLID_7_" fill="#EC1C24" d="M92.4,15.9c0,0-5.3-2.2-10.4,3.2c0,0-4.1,4.8-0.9,11.8c0,0,4,6.7,10.1,6.1
				c0,0-9.2,1.6-12.9-5c0,0-4.2-5.8,0.7-13.2C78.9,18.9,85.3,11.6,92.4,15.9z"/>
			<path id="XMLID_8_" fill="#FFF100" d="M96.4,17.3c0,0-7.2-5-14.5-0.9c0,0-7.7,5.2-4.3,14.2c0,0,0.9,2.6,3.1,5c0,0-3.6-2.3-5.5-9
				c0,0-0.7-6.4,3.3-10.1c0,0,3.8-3.4,8.5-3.7C86.9,12.7,93.3,12,96.4,17.3z"/>
			<path id="XMLID_9_" fill="#603813" d="M100.3,34.6c0,0-4.5,4.6-12.2,4c0,0-3.3,0.1-7.8-3.6c0,0-4.1-3.8-3.6-9.5
				C76.7,25.5,81.1,44.7,100.3,34.6z"/>
		</g>
		<path id="XMLID_15_" fill="#00ADEE" d="M83.3,21.1c0,0-2.5,5.1,1.5,9c0,0,3.6,3.7,9.3,1.8c0,0-6.2,4.3-11-1.1
			C83.1,30.9,79,26.4,83.3,21.1z"/>
		<path id="XMLID_14_" fill="#EC1C24" d="M84.4,30.9c0,0,3.5,4,9.9,0.9c0,0,5.3-2.8,5.6-10.2c0,0-0.6-7.4-5.8-9.1
			c0,0,8.2,1.9,8.6,9.2c0,0,1.1,6.7-6,11.5C96.7,33.2,88.4,37.3,84.4,30.9z"/>
		<path id="XMLID_13_" fill="#FFF100" d="M81.5,28.2c0,0,3.9,7.1,11.6,6.1c0,0,8.5-1.8,9.3-11c0,0,0.3-2.7-0.5-5.6c0,0,2,3.4,0.9,10
			c0,0-2.1,6-6.9,7.8c0,0-4.5,1.6-8.5,0.2C87.5,35.8,82,34.1,81.5,28.2z"/>
		<path id="XMLID_12_" fill="#603813" d="M85.4,11.4c0,0,5.6-2.5,11.7,0.9c0,0,2.8,1.1,5,6.1c0,0,1.8,4.9-0.9,9.8
			C101.2,28.1,105.4,9.4,85.4,11.4z"/>
	</g>
	<g id="XMLID_10_">
		<linearGradient id="XMLID_23_" gradientUnits="userSpaceOnUse" x1="108.0022" y1="15.2246" x2="137.7407" y2="15.2246">
			<stop  offset="0" style="stop-color:#F05A28"/>
			<stop  offset="9.343886e-003" style="stop-color:#F05A28"/>
			<stop  offset="0.2809" style="stop-color:#F05A28"/>
			<stop  offset="0.6685" style="stop-color:#EE4036;stop-opacity:0.8"/>
			<stop  offset="0.8876" style="stop-color:#EC1C24;stop-opacity:0.4"/>
			<stop  offset="1" style="stop-color:#EC1C24;stop-opacity:0.3"/>
		</linearGradient>
		<path id="XMLID_16_" fill="url(#XMLID_23_)" d="M117.1,27.4V6.5c0,0-1.5-4.5,6.8-2.3c0,0,4.3,0.9,6.5,5.8c0,0,2.9,7.2,1.1,13.2
			c0,0,5-1.7,6.1-7.4c0,0,1-4.9-2.8-8.8c0,0-5.1-4.8-11.5-5.1H108l0.1,1.6c0,0,4.1-1.6,4,6.4v18.7L117.1,27.4z"/>
		<linearGradient id="XMLID_24_" gradientUnits="userSpaceOnUse" x1="102.6409" y1="23.9724" x2="139.9545" y2="23.9724">
			<stop  offset="0" style="stop-color:#FFF23A"/>
			<stop  offset="4.010540e-002" style="stop-color:#FEE62D"/>
			<stop  offset="0.1171" style="stop-color:#FED41A"/>
			<stop  offset="0.1964" style="stop-color:#FDC90F"/>
			<stop  offset="0.2809" style="stop-color:#FDC60B"/>
			<stop  offset="0.6685" style="stop-color:#F28F3F;stop-opacity:0.8"/>
			<stop  offset="0.8876" style="stop-color:#ED693C;stop-opacity:0.5"/>
			<stop  offset="1" style="stop-color:#E83E39;stop-opacity:0.4"/>
		</linearGradient>
		<path id="XMLID_11_" fill="url(#XMLID_24_)" d="M137.1,9.3c0,0,4.7,7.2-3.4,14c0,0-8,4.5-15.4,5.5c0,0-11.6,2.2-15.6,9.8
			c0,0,6.3-5.1,15.4-5.6c9.2-0.6,14.2-2.5,18.1-5.5C136.2,27.5,144,22,137.1,9.3z"/>
		<linearGradient id="XMLID_25_" gradientUnits="userSpaceOnUse" x1="102.7685" y1="32.7924" x2="138.1277" y2="32.7924">
			<stop  offset="0" style="stop-color:#FFF23A"/>
			<stop  offset="4.010540e-002" style="stop-color:#FEE62D"/>
			<stop  offset="0.1171" style="stop-color:#FED41A"/>
			<stop  offset="0.1964" style="stop-color:#FDC90F"/>
			<stop  offset="0.2809" style="stop-color:#FDC60B"/>
			<stop  offset="0.6685" style="stop-color:#F28F3F"/>
			<stop  offset="0.8876" style="stop-color:#ED693C;stop-opacity:0.5"/>
			<stop  offset="1" style="stop-color:#E83E39;stop-opacity:0.4"/>
		</linearGradient>
		<path id="XMLID_18_" fill="url(#XMLID_25_)" d="M138.1,27.2c0,0-5.7,6.5-14.6,6.4c0,0-11.5,0.7-13.3,1c0,0-5.5,1.7-7.5,3.8
			c0,0,7-2.9,12-2.3c0,0,10.1-0.1,12.6-0.9C127.4,35.2,135.4,34,138.1,27.2z"/>
	</g>
</g>
</svg>
