<?xml version="1.0" encoding="utf-8"?>
<!-- Generator: Adobe Illustrator 18.0.0, SVG Export Plug-In . SVG Version: 6.00 Build 0)  -->
<!DOCTYPE svg PUBLIC "-//W3C//DTD SVG 1.1//EN" "http://www.w3.org/Graphics/SVG/1.1/DTD/svg11.dtd">
<svg version="1.1" id="Layer_1" xmlns="http://www.w3.org/2000/svg" xmlns:xlink="http://www.w3.org/1999/xlink" x="0px" y="0px"
	 viewBox="0 0 40 40" enable-background="new 0 0 40 40" xml:space="preserve">
<g>
	<g id="XMLID_17_">
		<linearGradient id="XMLID_20_" gradientUnits="userSpaceOnUse" x1="1.319" y1="15.2028" x2="18.3285" y2="15.2028">
			<stop  offset="0" style="stop-color:#00899C"/>
			<stop  offset="2.222196e-002" style="stop-color:#008FA7"/>
			<stop  offset="8.393367e-002" style="stop-color:#009DC2"/>
			<stop  offset="0.1471" style="stop-color:#00A7D5"/>
			<stop  offset="0.2119" style="stop-color:#00ADE0"/>
			<stop  offset="0.2809" style="stop-color:#00AFE4"/>
			<stop  offset="0.6685" style="stop-color:#00899C"/>
			<stop  offset="0.8876" style="stop-color:#262261"/>
			<stop  offset="1" style="stop-color:#262261"/>
		</linearGradient>
		<path id="XMLID_2_" fill="url(#XMLID_20_)" d="M6.7,17.3c0,0-2.9,0.5-5.4-3.7c0,0,5,1,8.4,0c0,0,7.2-2.1,8.6,2.1
			c0,0-2.5-3.1-8.6-1.3c0,0-4.3,1.3-7.2,0.1C2.5,14.5,4.1,16.8,6.7,17.3z"/>
		<linearGradient id="XMLID_21_" gradientUnits="userSpaceOnUse" x1="2.8817" y1="21.6153" x2="13.7606" y2="21.6153">
			<stop  offset="0" style="stop-color:#9FA757;stop-opacity:0.5"/>
			<stop  offset="4.635438e-002" style="stop-color:#98AB5B;stop-opacity:0.5165"/>
			<stop  offset="0.1598" style="stop-color:#8DB263;stop-opacity:0.5569"/>
			<stop  offset="0.2809" style="stop-color:#89B465;stop-opacity:0.6"/>
			<stop  offset="0.6685" style="stop-color:#307C39"/>
			<stop  offset="0.8876" style="stop-color:#006838"/>
			<stop  offset="1" style="stop-color:#006636"/>
		</linearGradient>
		<path id="XMLID_3_" fill="url(#XMLID_21_)" d="M2.9,16.3c0,0,2.5,2.1,6.4,1.4c0,0-2.2,7.8,4.5,9.2c0,0-7,0.2-5.5-8.3
			C8.3,18.6,4.9,19.1,2.9,16.3z"/>
		<linearGradient id="XMLID_22_" gradientUnits="userSpaceOnUse" x1="9.4927" y1="21.9758" x2="13.8808" y2="21.9758">
			<stop  offset="0" style="stop-color:#006838;stop-opacity:0.4"/>
			<stop  offset="9.343886e-003" style="stop-color:#006838;stop-opacity:0.4166"/>
			<stop  offset="0.2809" style="stop-color:#006838;stop-opacity:0.9"/>
			<stop  offset="0.6685" style="stop-color:#006838"/>
			<stop  offset="0.8876" style="stop-color:#006838"/>
			<stop  offset="1" style="stop-color:#006838"/>
		</linearGradient>
		<path id="XMLID_4_" fill="url(#XMLID_22_)" d="M9.7,17.8c0,0-1.7,8.2,4.1,8.5c0,0-4.6-0.1-3.5-8.5L9.7,17.8z"/>
	</g>
	<g id="XMLID_1_">
		<g id="XMLID_5_">
			<path id="XMLID_6_" fill="#00ADEE" d="M23.1,21.7c0,0,0.1-2.1-2.1-2.9c0,0-2-0.7-3.8,0.8c0,0,1.6-2.4,4.3-1.3
				C21.5,18.3,23.8,19.2,23.1,21.7z"/>
			<path id="XMLID_7_" fill="#EC1C24" d="M21.1,18.5c0,0-2-0.8-3.9,1.2c0,0-1.5,1.8-0.3,4.4c0,0,1.5,2.5,3.7,2.3
				c0,0-3.4,0.6-4.8-1.9c0,0-1.6-2.1,0.3-4.9C16.1,19.6,18.5,16.9,21.1,18.5z"/>
			<path id="XMLID_8_" fill="#FFF100" d="M22.6,19c0,0-2.7-1.9-5.4-0.3c0,0-2.9,1.9-1.6,5.2c0,0,0.3,1,1.1,1.9c0,0-1.3-0.9-2-3.3
				c0,0-0.3-2.4,1.2-3.8c0,0,1.4-1.3,3.1-1.4C19,17.3,21.4,17,22.6,19z"/>
			<path id="XMLID_9_" fill="#603813" d="M24,25.4c0,0-1.7,1.7-4.5,1.5c0,0-1.2,0-2.9-1.3c0,0-1.5-1.4-1.3-3.5
				C15.3,22,16.9,29.1,24,25.4z"/>
		</g>
		<path id="XMLID_15_" fill="#00ADEE" d="M17.7,20.4c0,0-0.9,1.9,0.6,3.3c0,0,1.3,1.4,3.5,0.7c0,0-2.3,1.6-4.1-0.4
			C17.6,24,16.1,22.4,17.7,20.4z"/>
		<path id="XMLID_14_" fill="#EC1C24" d="M18.1,24c0,0,1.3,1.5,3.7,0.3c0,0,2-1,2.1-3.8c0,0-0.2-2.7-2.2-3.4c0,0,3,0.7,3.2,3.4
			c0,0,0.4,2.5-2.2,4.3C22.7,24.9,19.6,26.4,18.1,24z"/>
		<path id="XMLID_13_" fill="#FFF100" d="M17.1,23c0,0,1.4,2.6,4.3,2.3c0,0,3.1-0.7,3.5-4.1c0,0,0.1-1-0.2-2.1c0,0,0.7,1.2,0.3,3.7
			c0,0-0.8,2.2-2.5,2.9c0,0-1.7,0.6-3.2,0.1C19.3,25.8,17.2,25.2,17.1,23z"/>
		<path id="XMLID_12_" fill="#603813" d="M18.5,16.8c0,0,2.1-0.9,4.3,0.3c0,0,1,0.4,1.8,2.3c0,0,0.7,1.8-0.4,3.6
			C24.3,23,25.9,16.1,18.5,16.8z"/>
	</g>
	<g id="XMLID_10_">
		<linearGradient id="XMLID_23_" gradientUnits="userSpaceOnUse" x1="26.8505" y1="18.2319" x2="37.8613" y2="18.2319">
			<stop  offset="0" style="stop-color:#F05A28"/>
			<stop  offset="9.343886e-003" style="stop-color:#F05A28"/>
			<stop  offset="0.2809" style="stop-color:#F05A28"/>
			<stop  offset="0.6685" style="stop-color:#EE4036;stop-opacity:0.8"/>
			<stop  offset="0.8876" style="stop-color:#EC1C24;stop-opacity:0.4"/>
			<stop  offset="1" style="stop-color:#EC1C24;stop-opacity:0.3"/>
		</linearGradient>
		<path id="XMLID_16_" fill="url(#XMLID_23_)" d="M30.2,22.7V15c0,0-0.6-1.7,2.5-0.9c0,0,1.6,0.3,2.4,2.1c0,0,1.1,2.7,0.4,4.9
			c0,0,1.8-0.6,2.3-2.7c0,0,0.4-1.8-1-3.3c0,0-1.9-1.8-4.3-1.9h-5.7l0,0.6c0,0,1.5-0.6,1.5,2.4v6.9L30.2,22.7z"/>
		<linearGradient id="XMLID_24_" gradientUnits="userSpaceOnUse" x1="24.8655" y1="21.4708" x2="38.681" y2="21.4708">
			<stop  offset="0" style="stop-color:#FFF23A"/>
			<stop  offset="4.010540e-002" style="stop-color:#FEE62D"/>
			<stop  offset="0.1171" style="stop-color:#FED41A"/>
			<stop  offset="0.1964" style="stop-color:#FDC90F"/>
			<stop  offset="0.2809" style="stop-color:#FDC60B"/>
			<stop  offset="0.6685" style="stop-color:#F28F3F;stop-opacity:0.8"/>
			<stop  offset="0.8876" style="stop-color:#ED693C;stop-opacity:0.5"/>
			<stop  offset="1" style="stop-color:#E83E39;stop-opacity:0.4"/>
		</linearGradient>
		<path id="XMLID_11_" fill="url(#XMLID_24_)" d="M37.6,16c0,0,1.7,2.7-1.3,5.2c0,0-3,1.7-5.7,2c0,0-4.3,0.8-5.8,3.6
			c0,0,2.3-1.9,5.7-2.1s5.2-0.9,6.7-2C37.3,22.8,40.2,20.7,37.6,16z"/>
		<linearGradient id="XMLID_25_" gradientUnits="userSpaceOnUse" x1="24.9127" y1="24.7365" x2="38.0046" y2="24.7365">
			<stop  offset="0" style="stop-color:#FFF23A"/>
			<stop  offset="4.010540e-002" style="stop-color:#FEE62D"/>
			<stop  offset="0.1171" style="stop-color:#FED41A"/>
			<stop  offset="0.1964" style="stop-color:#FDC90F"/>
			<stop  offset="0.2809" style="stop-color:#FDC60B"/>
			<stop  offset="0.6685" style="stop-color:#F28F3F"/>
			<stop  offset="0.8876" style="stop-color:#ED693C;stop-opacity:0.5"/>
			<stop  offset="1" style="stop-color:#E83E39;stop-opacity:0.4"/>
		</linearGradient>
		<path id="XMLID_18_" fill="url(#XMLID_25_)" d="M38,22.7c0,0-2.1,2.4-5.4,2.4c0,0-4.3,0.3-4.9,0.4c0,0-2,0.6-2.8,1.4
			c0,0,2.6-1.1,4.4-0.9c0,0,3.7-0.1,4.7-0.3C34,25.6,37,25.2,38,22.7z"/>
	</g>
</g>
</svg>
